<svg width="133" height="16" viewBox="0 0 133 16" fill="none" xmlns="http://www.w3.org/2000/svg">
<path d="M1.50039 0.78125H3.68789L7.79922 11.748L11.9008 0.78125H14.0883L8.65859 15H6.92031L1.50039 0.78125ZM0.504295 0.78125H2.58437L2.9457 10.2734V15H0.504295V0.78125ZM13.0043 0.78125H15.0941V15H12.643V10.2734L13.0043 0.78125ZM24.127 12.8809V7.8418C24.127 7.46419 24.0586 7.13867 23.9219 6.86523C23.7852 6.5918 23.5768 6.38021 23.2969 6.23047C23.0234 6.08073 22.6784 6.00586 22.2617 6.00586C21.8776 6.00586 21.5456 6.07096 21.2656 6.20117C20.9857 6.33138 20.7676 6.50716 20.6113 6.72852C20.4551 6.94987 20.377 7.20052 20.377 7.48047H18.0332C18.0332 7.0638 18.1341 6.66016 18.3359 6.26953C18.5378 5.87891 18.8307 5.5306 19.2148 5.22461C19.599 4.91862 20.0579 4.67773 20.5918 4.50195C21.1256 4.32617 21.7246 4.23828 22.3887 4.23828C23.1829 4.23828 23.8861 4.37174 24.498 4.63867C25.1165 4.9056 25.6016 5.30924 25.9531 5.84961C26.3112 6.38346 26.4902 7.05404 26.4902 7.86133V12.5586C26.4902 13.0404 26.5228 13.4733 26.5879 13.8574C26.6595 14.235 26.7604 14.5638 26.8906 14.8438V15H24.4785C24.3678 14.7461 24.2799 14.4238 24.2148 14.0332C24.1562 13.6361 24.127 13.252 24.127 12.8809ZM24.4687 8.57422L24.4883 10.0293H22.7988C22.3626 10.0293 21.9785 10.0716 21.6465 10.1562C21.3145 10.2344 21.0378 10.3516 20.8164 10.5078C20.5951 10.6641 20.429 10.8529 20.3184 11.0742C20.2077 11.2956 20.1523 11.5462 20.1523 11.8262C20.1523 12.1061 20.2174 12.3633 20.3477 12.5977C20.4779 12.8255 20.6667 13.0046 20.9141 13.1348C21.168 13.265 21.474 13.3301 21.832 13.3301C22.3138 13.3301 22.7337 13.2324 23.0918 13.0371C23.4564 12.8353 23.7428 12.5911 23.9512 12.3047C24.1595 12.0117 24.2702 11.735 24.2832 11.4746L25.0449 12.5195C24.9668 12.7865 24.8333 13.0729 24.6445 13.3789C24.4557 13.6849 24.2083 13.9779 23.9023 14.2578C23.6029 14.5312 23.2415 14.7559 22.8184 14.9316C22.4017 15.1074 21.9199 15.1953 21.373 15.1953C20.6829 15.1953 20.0677 15.0586 19.5273 14.7852C18.987 14.5052 18.5638 14.1309 18.2578 13.6621C17.9518 13.1868 17.7988 12.6497 17.7988 12.0508C17.7988 11.4909 17.903 10.9961 18.1113 10.5664C18.3262 10.1302 18.6387 9.76562 19.0488 9.47266C19.4655 9.17969 19.9733 8.95833 20.5723 8.80859C21.1712 8.65234 21.8548 8.57422 22.623 8.57422H24.4687ZM31.7145 6.44531V15H29.3609V4.43359H31.607L31.7145 6.44531ZM34.9469 4.36523L34.9273 6.55273C34.7841 6.52669 34.6279 6.50716 34.4586 6.49414C34.2958 6.48112 34.1331 6.47461 33.9703 6.47461C33.5667 6.47461 33.2118 6.5332 32.9059 6.65039C32.5999 6.76107 32.3427 6.92383 32.1344 7.13867C31.9325 7.34701 31.7763 7.60091 31.6656 7.90039C31.5549 8.19987 31.4898 8.53516 31.4703 8.90625L30.9332 8.94531C30.9332 8.28125 30.9983 7.66602 31.1285 7.09961C31.2587 6.5332 31.454 6.03516 31.7145 5.60547C31.9814 5.17578 32.3134 4.84049 32.7105 4.59961C33.1142 4.35872 33.5797 4.23828 34.107 4.23828C34.2503 4.23828 34.4033 4.2513 34.566 4.27734C34.7353 4.30339 34.8622 4.33268 34.9469 4.36523ZM39.1945 0V15H36.8312V0H39.1945ZM45.757 4.43359L41.1574 9.53125L38.6379 12.1094L38.0227 10.1172L39.927 7.76367L42.9152 4.43359H45.757ZM43.423 15L39.9953 10.0391L41.4797 8.38867L46.1477 15H43.423ZM64.184 7.73438V13.1641C63.9822 13.431 63.6664 13.724 63.2367 14.043C62.8135 14.3555 62.2504 14.6257 61.5473 14.8535C60.8441 15.0814 59.9685 15.1953 58.9203 15.1953C58.0284 15.1953 57.2113 15.0456 56.4691 14.7461C55.727 14.4401 55.0857 13.9941 54.5453 13.4082C54.0115 12.8223 53.598 12.1094 53.3051 11.2695C53.0121 10.4232 52.8656 9.45964 52.8656 8.37891V7.39258C52.8656 6.31836 52.9991 5.36133 53.266 4.52148C53.5395 3.67513 53.9301 2.95898 54.4379 2.37305C54.9457 1.78711 55.5577 1.3444 56.2738 1.04492C56.9965 0.738932 57.8135 0.585938 58.725 0.585938C59.8904 0.585938 60.8539 0.78125 61.6156 1.17188C62.3839 1.55599 62.9763 2.08984 63.393 2.77344C63.8096 3.45703 64.0733 4.23828 64.184 5.11719H61.7816C61.7035 4.6224 61.5505 4.17969 61.3227 3.78906C61.1013 3.39844 60.7823 3.09245 60.3656 2.87109C59.9555 2.64323 59.4216 2.5293 58.7641 2.5293C58.1977 2.5293 57.6996 2.63672 57.2699 2.85156C56.8402 3.06641 56.4822 3.38216 56.1957 3.79883C55.9158 4.21549 55.7042 4.72331 55.5609 5.32227C55.4177 5.92122 55.3461 6.60482 55.3461 7.37305V8.37891C55.3461 9.16016 55.4275 9.85352 55.5902 10.459C55.7595 11.0645 56.0004 11.5755 56.3129 11.9922C56.6319 12.4089 57.0193 12.7246 57.475 12.9395C57.9307 13.1478 58.4451 13.252 59.018 13.252C59.5779 13.252 60.0368 13.2064 60.3949 13.1152C60.753 13.0176 61.0362 12.9036 61.2445 12.7734C61.4594 12.6367 61.6254 12.5065 61.7426 12.3828V9.56055H58.7836V7.73438H64.184ZM73.4219 12.5098V4.43359H75.7852V15H73.5586L73.4219 12.5098ZM73.7539 10.3125L74.5449 10.293C74.5449 11.0026 74.4668 11.6569 74.3105 12.2559C74.1543 12.8483 73.9134 13.3659 73.5879 13.8086C73.2624 14.2448 72.8457 14.5866 72.3379 14.834C71.8301 15.0749 71.2214 15.1953 70.5117 15.1953C69.9974 15.1953 69.5254 15.1204 69.0957 14.9707C68.666 14.821 68.2949 14.5898 67.9824 14.2773C67.6764 13.9648 67.4388 13.5579 67.2695 13.0566C67.1003 12.5553 67.0156 11.9564 67.0156 11.2598V4.43359H69.3691V11.2793C69.3691 11.6634 69.4147 11.9857 69.5059 12.2461C69.597 12.5 69.7207 12.7051 69.877 12.8613C70.0332 13.0176 70.2155 13.1283 70.4238 13.1934C70.6322 13.2585 70.8535 13.291 71.0879 13.291C71.7585 13.291 72.2858 13.1608 72.6699 12.9004C73.0605 12.6335 73.3372 12.2754 73.5 11.8262C73.6693 11.377 73.7539 10.8724 73.7539 10.3125ZM83.2555 15.1953C82.4742 15.1953 81.7678 15.0684 81.1363 14.8145C80.5113 14.554 79.9775 14.1927 79.5348 13.7305C79.0986 13.2682 78.7633 12.7246 78.5289 12.0996C78.2945 11.4746 78.1773 10.8008 78.1773 10.0781V9.6875C78.1773 8.86068 78.2978 8.11198 78.5387 7.44141C78.7796 6.77083 79.1148 6.19792 79.5445 5.72266C79.9742 5.24089 80.482 4.87305 81.068 4.61914C81.6539 4.36523 82.2887 4.23828 82.9723 4.23828C83.7275 4.23828 84.3883 4.36523 84.9547 4.61914C85.5211 4.87305 85.9898 5.23112 86.3609 5.69336C86.7385 6.14909 87.0185 6.69271 87.2008 7.32422C87.3896 7.95573 87.484 8.65234 87.484 9.41406V10.4199H79.3199V8.73047H85.1598V8.54492C85.1467 8.12174 85.0621 7.72461 84.9059 7.35352C84.7561 6.98242 84.525 6.68294 84.2125 6.45508C83.9 6.22721 83.4833 6.11328 82.9625 6.11328C82.5719 6.11328 82.2236 6.19792 81.9176 6.36719C81.6181 6.52995 81.3674 6.76758 81.1656 7.08008C80.9638 7.39258 80.8076 7.77018 80.6969 8.21289C80.5927 8.64909 80.5406 9.14062 80.5406 9.6875V10.0781C80.5406 10.5404 80.6025 10.9701 80.7262 11.3672C80.8564 11.7578 81.0452 12.0996 81.2926 12.3926C81.54 12.6855 81.8395 12.9167 82.191 13.0859C82.5426 13.2487 82.943 13.3301 83.3922 13.3301C83.9586 13.3301 84.4632 13.2161 84.9059 12.9883C85.3486 12.7604 85.7327 12.4382 86.0582 12.0215L87.2984 13.2227C87.0706 13.5547 86.7744 13.8737 86.4098 14.1797C86.0452 14.4792 85.5992 14.7233 85.0719 14.9121C84.551 15.1009 83.9456 15.1953 83.2555 15.1953ZM92.0832 6.44531V15H89.7297V4.43359H91.9758L92.0832 6.44531ZM95.3156 4.36523L95.2961 6.55273C95.1529 6.52669 94.9966 6.50716 94.8273 6.49414C94.6646 6.48112 94.5018 6.47461 94.3391 6.47461C93.9354 6.47461 93.5806 6.5332 93.2746 6.65039C92.9686 6.76107 92.7115 6.92383 92.5031 7.13867C92.3013 7.34701 92.145 7.60091 92.0344 7.90039C91.9237 8.19987 91.8586 8.53516 91.8391 8.90625L91.3019 8.94531C91.3019 8.28125 91.3671 7.66602 91.4973 7.09961C91.6275 6.5332 91.8228 6.03516 92.0832 5.60547C92.3501 5.17578 92.6822 4.84049 93.0793 4.59961C93.4829 4.35872 93.9484 4.23828 94.4758 4.23828C94.619 4.23828 94.772 4.2513 94.9348 4.27734C95.104 4.30339 95.231 4.33268 95.3156 4.36523ZM99.5535 6.44531V15H97.2V4.43359H99.4461L99.5535 6.44531ZM102.786 4.36523L102.766 6.55273C102.623 6.52669 102.467 6.50716 102.298 6.49414C102.135 6.48112 101.972 6.47461 101.809 6.47461C101.406 6.47461 101.051 6.5332 100.745 6.65039C100.439 6.76107 100.182 6.92383 99.9734 7.13867C99.7716 7.34701 99.6154 7.60091 99.5047 7.90039C99.394 8.19987 99.3289 8.53516 99.3094 8.90625L98.7723 8.94531C98.7723 8.28125 98.8374 7.66602 98.9676 7.09961C99.0978 6.5332 99.2931 6.03516 99.5535 5.60547C99.8204 5.17578 100.152 4.84049 100.55 4.59961C100.953 4.35872 101.419 4.23828 101.946 4.23828C102.089 4.23828 102.242 4.2513 102.405 4.27734C102.574 4.30339 102.701 4.33268 102.786 4.36523ZM109.123 15.1953C108.342 15.1953 107.636 15.0684 107.004 14.8145C106.379 14.554 105.845 14.1927 105.403 13.7305C104.967 13.2682 104.631 12.7246 104.397 12.0996C104.162 11.4746 104.045 10.8008 104.045 10.0781V9.6875C104.045 8.86068 104.166 8.11198 104.407 7.44141C104.648 6.77083 104.983 6.19792 105.412 5.72266C105.842 5.24089 106.35 4.87305 106.936 4.61914C107.522 4.36523 108.157 4.23828 108.84 4.23828C109.595 4.23828 110.256 4.36523 110.823 4.61914C111.389 4.87305 111.858 5.23112 112.229 5.69336C112.607 6.14909 112.886 6.69271 113.069 7.32422C113.258 7.95573 113.352 8.65234 113.352 9.41406V10.4199H105.188V8.73047H111.028V8.54492C111.015 8.12174 110.93 7.72461 110.774 7.35352C110.624 6.98242 110.393 6.68294 110.08 6.45508C109.768 6.22721 109.351 6.11328 108.83 6.11328C108.44 6.11328 108.092 6.19792 107.786 6.36719C107.486 6.52995 107.235 6.76758 107.034 7.08008C106.832 7.39258 106.676 7.77018 106.565 8.21289C106.461 8.64909 106.409 9.14062 106.409 9.6875V10.0781C106.409 10.5404 106.47 10.9701 106.594 11.3672C106.724 11.7578 106.913 12.0996 107.161 12.3926C107.408 12.6855 107.707 12.9167 108.059 13.0859C108.411 13.2487 108.811 13.3301 109.26 13.3301C109.827 13.3301 110.331 13.2161 110.774 12.9883C111.217 12.7604 111.601 12.4382 111.926 12.0215L113.166 13.2227C112.939 13.5547 112.642 13.8737 112.278 14.1797C111.913 14.4792 111.467 14.7233 110.94 14.9121C110.419 15.1009 109.814 15.1953 109.123 15.1953ZM117.951 6.44531V15H115.598V4.43359H117.844L117.951 6.44531ZM121.184 4.36523L121.164 6.55273C121.021 6.52669 120.865 6.50716 120.695 6.49414C120.533 6.48112 120.37 6.47461 120.207 6.47461C119.803 6.47461 119.449 6.5332 119.143 6.65039C118.837 6.76107 118.579 6.92383 118.371 7.13867C118.169 7.34701 118.013 7.60091 117.902 7.90039C117.792 8.19987 117.727 8.53516 117.707 8.90625L117.17 8.94531C117.17 8.28125 117.235 7.66602 117.365 7.09961C117.495 6.5332 117.691 6.03516 117.951 5.60547C118.218 5.17578 118.55 4.84049 118.947 4.59961C119.351 4.35872 119.816 4.23828 120.344 4.23828C120.487 4.23828 120.64 4.2513 120.803 4.27734C120.972 4.30339 121.099 4.33268 121.184 4.36523ZM122.355 9.83398V9.60938C122.355 8.84766 122.466 8.14128 122.687 7.49023C122.908 6.83268 123.227 6.26302 123.644 5.78125C124.067 5.29297 124.582 4.91536 125.187 4.64844C125.799 4.375 126.489 4.23828 127.257 4.23828C128.032 4.23828 128.722 4.375 129.328 4.64844C129.94 4.91536 130.457 5.29297 130.88 5.78125C131.304 6.26302 131.626 6.83268 131.847 7.49023C132.069 8.14128 132.179 8.84766 132.179 9.60938V9.83398C132.179 10.5957 132.069 11.3021 131.847 11.9531C131.626 12.6042 131.304 13.1738 130.88 13.6621C130.457 14.1439 129.943 14.5215 129.338 14.7949C128.732 15.0618 128.045 15.1953 127.277 15.1953C126.502 15.1953 125.809 15.0618 125.197 14.7949C124.591 14.5215 124.077 14.1439 123.654 13.6621C123.231 13.1738 122.908 12.6042 122.687 11.9531C122.466 11.3021 122.355 10.5957 122.355 9.83398ZM124.709 9.60938V9.83398C124.709 10.3092 124.757 10.7585 124.855 11.1816C124.953 11.6048 125.106 11.9759 125.314 12.2949C125.522 12.6139 125.789 12.8646 126.115 13.0469C126.44 13.2292 126.828 13.3203 127.277 13.3203C127.713 13.3203 128.091 13.2292 128.41 13.0469C128.735 12.8646 129.002 12.6139 129.211 12.2949C129.419 11.9759 129.572 11.6048 129.67 11.1816C129.774 10.7585 129.826 10.3092 129.826 9.83398V9.60938C129.826 9.14062 129.774 8.69792 129.67 8.28125C129.572 7.85807 129.416 7.48372 129.201 7.1582C128.992 6.83268 128.726 6.57878 128.4 6.39648C128.081 6.20768 127.7 6.11328 127.257 6.11328C126.815 6.11328 126.431 6.20768 126.105 6.39648C125.786 6.57878 125.522 6.83268 125.314 7.1582C125.106 7.48372 124.953 7.85807 124.855 8.28125C124.757 8.69792 124.709 9.14062 124.709 9.60938Z" fill="#2E2F42"/>
</svg>
